# xmcd CD database file
#
# Track frame offsets:
#	150
#	32211
#	67461
#	100473
#	117655
#	152831
#	196782
#
# Disc length: 3113 seconds
#
# Revision: 0
# Processed by: cddbd v1.5.2PL0 Copyright (c) Steve Scherf et al.
# Submitted via: CDex 1.51
#
DISCID=680c2707
DTITLE=Leszek Zadlo - Resonance
DYEAR=1999
DGENRE=Jazz
TTITLE0=Lea's Dream
TTITLE1=Green Moon
TTITLE2=Woman
TTITLE3=Se Col Cieco Désir
TTITLE4=Resonance
TTITLE5=Mauresque
TTITLE6=Shining Light
EXTD=YEAR: 1999
EXTT0=
EXTT1=
EXTT2=
EXTT3=
EXTT4=
EXTT5=
EXTT6=
PLAYORDER=
